<svg width="24" height="24" viewBox="0 0 24 24" fill="none" xmlns="http://www.w3.org/2000/svg">
<path d="M20.4499 20.45H16.8939V14.88C16.8939 13.552 16.8699 11.842 15.0439 11.842C13.192 11.842 12.908 13.29 12.908 14.782V20.45H9.35197V8.996H12.766V10.562H12.814C13.5099 9.374 14.8059 8.662 16.1819 8.712C19.7859 8.712 20.4519 11.082 20.4519 14.168L20.4499 20.448V20.45ZM5.33998 7.43C4.79373 7.42738 4.27057 7.20935 3.88412 6.82328C3.49767 6.4372 3.27914 5.91426 3.27599 5.36801C3.27599 4.23601 4.20798 3.30402 5.33998 3.30402C6.47198 3.30402 7.40197 4.23601 7.40397 5.36801C7.40397 6.50001 6.47198 7.432 5.33998 7.432V7.43ZM7.11797 20.45H3.55799V8.996H7.11797V20.45ZM22.2199 2.97263e-05H1.76999C1.3063 -0.00266352 0.860272 0.177748 0.528844 0.50206C0.197417 0.826372 0.0073693 1.26838 0 1.73202V22.2679C0.0073693 22.7316 0.197417 23.1736 0.528844 23.4979C0.860272 23.8222 1.3063 24.0026 1.76999 23.9999H22.2219C22.6867 24.0037 23.1342 23.8239 23.4671 23.4996C23.8 23.1753 23.9915 22.7327 23.9999 22.2679V1.73002C23.9915 1.26568 23.7999 0.823484 23.4668 0.499805C23.1338 0.176127 22.6863 -0.0027965 22.2219 0.00202957L22.2199 2.97263e-05Z" fill="white"/>
</svg>
