<svg width="23" height="23" viewBox="0 0 23 23" fill="none" xmlns="http://www.w3.org/2000/svg">
<path fill-rule="evenodd" clip-rule="evenodd" d="M4.77235 2.85901H18.1145C19.1672 2.85901 20.0205 3.71236 20.0205 4.76503V18.1072C20.0205 19.1599 19.1672 20.0132 18.1145 20.0132H4.77235C3.71969 20.0132 2.86633 19.1599 2.86633 18.1072V4.76503C2.86633 3.71236 3.71969 2.85901 4.77235 2.85901ZM7.63139 17.1542C7.89455 17.1542 8.10789 16.9408 8.10789 16.6777V10.0066C8.10789 9.74346 7.89455 9.53008 7.63139 9.53008H6.20187C5.93871 9.53008 5.72537 9.74346 5.72537 10.0066V16.6777C5.72537 16.9408 5.93871 17.1542 6.20187 17.1542H7.63139ZM6.91663 8.57707C6.12713 8.57707 5.48711 7.93706 5.48711 7.14756C5.48711 6.35805 6.12713 5.71804 6.91663 5.71804C7.70613 5.71804 8.34614 6.35805 8.34614 7.14756C8.34614 7.93706 7.70613 8.57707 6.91663 8.57707ZM16.685 17.1542C16.9481 17.1542 17.1615 16.9408 17.1615 16.6777V12.2938C17.1925 10.7793 16.0728 9.48674 14.5693 9.30136C13.5181 9.20535 12.4997 9.69629 11.9199 10.5784V10.0066C11.9199 9.74346 11.7066 9.53008 11.4434 9.53008H10.0139C9.75079 9.53008 9.53741 9.74346 9.53741 10.0066V16.6777C9.53741 16.9408 9.75079 17.1542 10.0139 17.1542H11.4434C11.7066 17.1542 11.9199 16.9408 11.9199 16.6777V13.1039C11.9199 12.3144 12.56 11.6744 13.3495 11.6744C14.1389 11.6744 14.779 12.3144 14.779 13.1039V16.6777C14.779 16.9408 14.9923 17.1542 15.2555 17.1542H16.685Z" fill="#F2F2F2"/>
</svg>
