<svg width="24" height="23" viewBox="0 0 24 23" fill="none" xmlns="http://www.w3.org/2000/svg">
<path fill-rule="evenodd" clip-rule="evenodd" d="M12.2026 2.85901C7.4675 2.85901 3.62549 6.70102 3.62549 11.4361C3.62549 16.1712 7.4675 20.0132 12.2026 20.0132C16.9284 20.0132 20.7797 16.1712 20.7797 11.4361C20.7797 6.70102 16.9284 2.85901 12.2026 2.85901ZM17.8679 6.81266C18.8912 8.05923 19.5052 9.64997 19.5238 11.371C19.2819 11.3245 16.8632 10.8314 14.426 11.1384C14.3701 11.0174 14.3236 10.8873 14.2678 10.757C14.1189 10.4035 13.9515 10.0407 13.784 9.69648C16.4818 8.5988 17.7097 7.01732 17.8679 6.81266ZM12.2026 4.12418C14.0631 4.12418 15.7655 4.82189 17.0587 5.96612C16.9284 6.15217 15.8214 7.6313 13.2166 8.60807C12.0166 6.40334 10.6862 4.59862 10.4816 4.31954C11.0304 4.1893 11.6072 4.12418 12.2026 4.12418ZM9.0862 4.81258C9.28155 5.07305 10.5839 6.88708 11.8026 9.0453C8.37917 9.95703 5.35579 9.93835 5.0302 9.93835C5.50463 7.66851 7.03958 5.78005 9.0862 4.81258ZM4.87205 11.4454C4.87205 11.371 4.87205 11.2966 4.87205 11.2222C5.18834 11.2314 8.74197 11.278 12.398 10.1802C12.6119 10.5895 12.8073 11.0082 12.9933 11.4268C12.9003 11.4547 12.7979 11.4826 12.7049 11.5105C8.92803 12.7291 6.91865 16.0595 6.7512 16.3386C5.58836 15.0455 4.87205 13.3246 4.87205 11.4454ZM12.2026 18.7667C10.5095 18.7667 8.94664 18.1899 7.70938 17.2224C7.83962 16.9526 9.32803 14.0874 13.4585 12.6455C13.477 12.6361 13.4864 12.6361 13.505 12.6269C14.5376 15.2968 14.9562 17.5386 15.0678 18.1806C14.1841 18.562 13.2166 18.7667 12.2026 18.7667ZM16.2864 17.5108C16.2121 17.0642 15.8214 14.9246 14.8631 12.2919C17.1609 11.9291 19.1703 12.5245 19.4215 12.6083C19.1052 14.6456 17.933 16.4038 16.2864 17.5108Z" fill="#F2F2F2"/>
</svg>
