<svg width="24" height="23" viewBox="0 0 24 23" fill="none" xmlns="http://www.w3.org/2000/svg">
<path fill-rule="evenodd" clip-rule="evenodd" d="M16.1351 2.85901H8.51102C5.87936 2.85901 3.74597 4.9924 3.74597 7.62406V15.2481C3.74597 17.8798 5.87936 20.0132 8.51102 20.0132H16.1351C18.7668 20.0132 20.9002 17.8798 20.9002 15.2481V7.62406C20.9002 4.9924 18.7668 2.85901 16.1351 2.85901ZM19.2324 15.2481C19.2272 16.9565 17.8435 18.3402 16.1351 18.3454H8.51102C6.80261 18.3402 5.41897 16.9565 5.41374 15.2481V7.62406C5.41897 5.91565 6.80261 4.53201 8.51102 4.52678H16.1351C17.8435 4.53201 19.2272 5.91565 19.2324 7.62406V15.2481ZM16.8499 7.86231C17.3762 7.86231 17.8029 7.43563 17.8029 6.9093C17.8029 6.38298 17.3762 5.95629 16.8499 5.95629C16.3235 5.95629 15.8969 6.38298 15.8969 6.9093C15.8969 7.43563 16.3235 7.86231 16.8499 7.86231ZM12.3231 7.14756C9.95457 7.14756 8.03452 9.06761 8.03452 11.4361C8.03452 13.8046 9.95457 15.7247 12.3231 15.7247C14.6916 15.7247 16.6116 13.8046 16.6116 11.4361C16.6142 10.2979 16.1631 9.20565 15.3583 8.40084C14.5535 7.59603 13.4612 7.14502 12.3231 7.14756ZM9.70229 11.4361C9.70229 12.8835 10.8756 14.0569 12.3231 14.0569C13.7705 14.0569 14.9438 12.8835 14.9438 11.4361C14.9438 9.98867 13.7705 8.81533 12.3231 8.81533C10.8756 8.81533 9.70229 9.98867 9.70229 11.4361Z" fill="#F2F2F2"/>
</svg>
