<svg width="23" height="23" viewBox="0 0 23 23" fill="none" xmlns="http://www.w3.org/2000/svg">
<path d="M16.3947 15.5111C15.4088 16.2998 14.0286 16.8913 12.6484 16.8913C9.49358 16.8913 7.32466 14.5252 7.32466 11.3704C7.32466 8.21559 9.49358 6.04667 12.6484 6.04667C14.0286 6.04667 15.4088 6.44102 16.3947 7.42689L16.9862 8.01842L20.141 5.0608L19.3523 4.46927C17.5777 2.89187 15.2116 1.90601 12.6484 1.90601C7.12749 1.90601 2.98682 6.04667 2.98682 11.5676C2.98682 17.0884 7.12749 21.2291 12.6484 21.2291C15.2116 21.2291 17.5777 20.2432 19.3523 18.6658L20.141 18.0743L16.9862 14.9195L16.3947 15.5111Z" fill="#F2F2F2"/>
<path d="M12.4512 14.7222C14.1935 14.7222 15.606 13.3097 15.606 11.5674C15.606 9.82505 14.1935 8.4126 12.4512 8.4126C10.7088 8.4126 9.29639 9.82505 9.29639 11.5674C9.29639 13.3097 10.7088 14.7222 12.4512 14.7222Z" fill="#F2F2F2"/>
</svg>
