<svg width="16" height="16" viewBox="0 0 16 16" fill="none" xmlns="http://www.w3.org/2000/svg">
<path d="M15.8256 7.10343L12.3218 10.5189L13.1493 15.3429C13.1853 15.5539 13.0986 15.7671 12.9254 15.8931C12.8275 15.9645 12.7111 16.0005 12.5946 16.0005C12.5052 16.0005 12.4152 15.9791 12.3331 15.9358L8.0007 13.6582L3.66888 15.9352C3.47988 16.0354 3.24982 16.0191 3.07657 15.8925C2.90332 15.7665 2.8167 15.5533 2.8527 15.3424L3.68014 10.5184L0.175761 7.10343C0.0227611 6.95381 -0.0329264 6.72993 0.0334486 6.52687C0.0998236 6.32381 0.275886 6.17475 0.487949 6.14381L5.33051 5.44068L7.49613 1.05206C7.6857 0.667869 8.3157 0.667869 8.50526 1.05206L10.6709 5.44068L15.5134 6.14381C15.7255 6.17475 15.9016 6.32325 15.9679 6.52687C16.0343 6.7305 15.9786 6.95325 15.8256 7.10343Z" fill="#B9D4FF"/>
</svg>
