<svg width="16" height="16" viewBox="0 0 16 16" fill="none" xmlns="http://www.w3.org/2000/svg">
<path d="M15.8249 7.10343L12.3211 10.5189L13.1485 15.3429C13.1845 15.5539 13.0979 15.7671 12.9246 15.8931C12.8268 15.9645 12.7103 16.0005 12.5939 16.0005C12.5045 16.0005 12.4145 15.9791 12.3323 15.9358L7.99996 13.6582L3.66815 15.9352C3.47915 16.0354 3.24909 16.0191 3.07584 15.8925C2.90259 15.7665 2.81597 15.5533 2.85197 15.3424L3.6794 10.5184L0.175029 7.10343C0.0220287 6.95381 -0.0336588 6.72993 0.0327162 6.52687C0.0990911 6.32381 0.275154 6.17475 0.487216 6.14381L5.32978 5.44068L7.4954 1.05206C7.68496 0.667869 8.31496 0.667869 8.50453 1.05206L10.6701 5.44068L15.5127 6.14381C15.7248 6.17475 15.9008 6.32325 15.9672 6.52687C16.0336 6.7305 15.9779 6.95325 15.8249 7.10343Z" fill="#2B7CFF"/>
</svg>
